<svg xmlns="http://www.w3.org/2000/svg" viewBox="0 0 184.5 72.4"><defs><style>.cls-1{fill:#1b1c1a;}.cls-2{fill:#e00513;}</style></defs><g id="Layer_2" data-name="Layer 2"><g id="Layer_1-2" data-name="Layer 1"><g id="logo"><path class="cls-1" d="M46,48.46C46,63.87,37.6,72.4,22.83,72.4,9.16,72.4.55,64.66,0,50.91H15.64c.4,4.58,3,7.11,7.27,7.11,4.5,0,7-3.24,7-9.08V17.57H46Z"/><path class="cls-1" d="M83.13,53.72h-16L51.75,17.57,60.13,0Z"/><path class="cls-1" d="M83,32V28.24l4.23-.8v5.41h8.24V18.21h4.19V32c0,3.39-1.08,4.26-4.47,4.26H87.44C84.05,36.24,83,35.37,83,32Z"/><path class="cls-1" d="M112.69,32.85h12V18.21h4.19V32c0,3.39-1.08,4.26-4.47,4.26H113c-3.39,0-4.47-.87-4.47-4.26V18.21h4.19Z"/><path class="cls-1" d="M135.15,18.21h4.22v7.51l10-7.51h6.08L143.5,26.7l13.41,9.54h-6.74l-10.8-7.93v7.93h-4.22Z"/><path class="cls-1" d="M166.76,18.21H180c3.39,0,4.47.88,4.47,4.27V32c0,3.39-1.08,4.26-4.47,4.26H166.76c-3.39,0-4.48-.87-4.48-4.26v-9.5C162.28,19.09,163.37,18.21,166.76,18.21Zm13.55,14.64V21.43H166.48V32.85Z"/><path class="cls-2" d="M87.21,53.72H84.5L89,44.35h1.84l4.48,9.37H92.6l-.81-1.85H88Zm1.6-3.81H91l-1.1-2.45Z"/><path class="cls-2" d="M99.39,51.51a1.12,1.12,0,0,0,.68.15H102a1.13,1.13,0,0,0,.69-.15.68.68,0,0,0,.18-.55V44.37h2.41V50.9a4.56,4.56,0,0,1-.15,1.29,1.92,1.92,0,0,1-.52.85,2.12,2.12,0,0,1-.89.52,4.52,4.52,0,0,1-1.33.16h-2.7a4.4,4.4,0,0,1-1.32-.16,2.12,2.12,0,0,1-1.42-1.37,4.56,4.56,0,0,1-.15-1.29V44.37h2.42V51A.68.68,0,0,0,99.39,51.51Z"/><path class="cls-2" d="M110,53.72V46.43h-3.13V44.37h8.67v2.06H112.4v7.29Z"/><path class="cls-2" d="M125.38,52.19a2,2,0,0,1-.53.85,2,2,0,0,1-.89.52,4.4,4.4,0,0,1-1.32.16h-2.7a4.4,4.4,0,0,1-1.32-.16,2.06,2.06,0,0,1-.89-.52,2,2,0,0,1-.53-.85,4.56,4.56,0,0,1-.15-1.29V47.19a4.56,4.56,0,0,1,.15-1.29,2,2,0,0,1,.53-.85,2.06,2.06,0,0,1,.89-.52,4.4,4.4,0,0,1,1.32-.16h2.7a4.4,4.4,0,0,1,1.32.16,2,2,0,0,1,.89.52,2,2,0,0,1,.53.85,4.56,4.56,0,0,1,.15,1.29V50.9A4.56,4.56,0,0,1,125.38,52.19Zm-5.73-5.61a.65.65,0,0,0-.19.55V51a.65.65,0,0,0,.19.55,1.1,1.1,0,0,0,.68.15h1.92a1.13,1.13,0,0,0,.69-.15.68.68,0,0,0,.18-.55V47.13a.73.73,0,0,0-.17-.56,1.24,1.24,0,0,0-.7-.14h-1.92A1.1,1.1,0,0,0,119.65,46.58Z"/><path class="cls-2" d="M138.39,44.35v9.37H136V47.83l-2.61,3.27-2.63-3.27v5.89h-2.42V44.35h2.42l2.63,3.39L136,44.35Z"/><path class="cls-2" d="M142.63,53.72h-2.71l4.48-9.37h1.84l4.48,9.37H148l-.8-1.85h-3.78Zm1.6-3.81h2.18l-1.1-2.45Z"/><path class="cls-2" d="M152.4,53.72V46.43h-3.13V44.37h8.67v2.06h-3.13v7.29Z"/><path class="cls-2" d="M159.56,53.72V44.37H162v9.35Z"/><path class="cls-2" d="M173.09,52.19a2,2,0,0,1-.53.85,2,2,0,0,1-.89.52,4.4,4.4,0,0,1-1.32.16h-2.7a4.4,4.4,0,0,1-1.32-.16,2.06,2.06,0,0,1-.89-.52,2,2,0,0,1-.53-.85,4.56,4.56,0,0,1-.15-1.29V47.19a4.56,4.56,0,0,1,.15-1.29,2,2,0,0,1,.53-.85,2.06,2.06,0,0,1,.89-.52,4.4,4.4,0,0,1,1.32-.16h2.7a4.4,4.4,0,0,1,1.32.16,2,2,0,0,1,.89.52,2,2,0,0,1,.53.85,4.56,4.56,0,0,1,.15,1.29V50.9A4.56,4.56,0,0,1,173.09,52.19Zm-5.74-5.61a.68.68,0,0,0-.18.55V51a.68.68,0,0,0,.18.55,1.13,1.13,0,0,0,.69.15H170a1.13,1.13,0,0,0,.69-.15.68.68,0,0,0,.18-.55V47.13a.69.69,0,0,0-.18-.56,1.18,1.18,0,0,0-.69-.14H168A1.13,1.13,0,0,0,167.35,46.58Z"/><path class="cls-2" d="M176,53.72V44.37h2.42L182.09,48V44.37h2.41v9.35h-2.41V51.15l-3.65-3.69v6.26Z"/><polygon class="cls-2" points="55.66 36.71 63.12 53.72 48.19 53.72 55.66 36.71"/></g></g></g></svg>